<svg id="logo" xmlns="http://www.w3.org/2000/svg" xmlns:xlink="http://www.w3.org/1999/xlink" viewBox="0 0 254.42 141.42"><defs><style>.cls-1{fill:#b6106e;}.cls-2{fill:#e9148d;}.cls-3{fill:#0189be;}.cls-4{fill:#01aef1;}.cls-5{fill:url(#Безымянный_градиент_41);}.cls-6{opacity:0.3;}.cls-7{fill:url(#Безымянный_градиент_36);}</style><linearGradient id="Безымянный_градиент_41" x1="70.71" y1="70.63" x2="183.71" y2="70.63" gradientUnits="userSpaceOnUse"><stop offset="0" stop-color="#01aef1"/><stop offset="0.2" stop-color="#2093db"/><stop offset="0.8" stop-color="#992983"/><stop offset="1" stop-color="#b6106e"/></linearGradient><linearGradient id="Безымянный_градиент_36" x1="70.71" y1="70.8" x2="183.71" y2="70.8" gradientUnits="userSpaceOnUse"><stop offset="0" stop-color="#0189be"/><stop offset="0.2" stop-color="#197db9"/><stop offset="0.8" stop-color="#d21f92"/><stop offset="1" stop-color="#e9148d"/></linearGradient></defs><title>logo_web-portfolio_v3</title><polygon class="cls-1" points="254.42 70.71 183.71 141.25 183.71 113 226.14 70.71 254.42 70.71"/><polygon class="cls-2" points="226.14 70.71 183.71 27.78 183.71 0.17 254.42 70.71 226.14 70.71"/><polygon class="cls-3" points="28.28 70.71 70.71 113.14 70.71 141.42 0 70.71 28.28 70.71"/><polyline class="cls-4" points="0 70.71 70.71 0 70.71 28.28 28.28 70.71"/><polyline class="cls-5" points="183.71 141.25 70.71 28.28 70.71 0 183.71 113 183.71 141.13"/><g id="shadow" class="cls-6"><polygon points="127.14 84.68 141.22 70.51 145.74 75.03 131.66 89.2 127.14 84.68"/></g><polygon class="cls-7" points="183.71 0.17 183.71 27.78 70.71 141.42 70.71 113.14 183.71 0.17"/></svg>