<svg id="light_version" xmlns="http://www.w3.org/2000/svg" viewBox="0 0 320.7 315.49"><defs><style>.cls-1,.cls-9{fill:#333;}.cls-1,.cls-48{opacity:0.2;}.cls-2{fill:#fa717a;}.cls-3{fill:#cc5c64;}.cls-4{fill:#abc4eb;}.cls-5{fill:#edf4fe;}.cls-6{fill:#202020;}.cls-7{fill:#414141;}.cls-8{fill:#555;}.cls-10{fill:#404040;}.cls-11{fill:#4a4a4a;}.cls-12{fill:#3e3c3d;}.cls-13{fill:#555150;}.cls-14{fill:#231e18;}.cls-15{fill:#929292;}.cls-16{fill:#bfbfbf;}.cls-17{fill:#eebc84;}.cls-18{fill:#a5c8db;}.cls-19{fill:#ffe5b9;}.cls-20{fill:#8aa5b6;}.cls-21{fill:#443d2f;}.cls-22{fill:#696461;}.cls-23{fill:#4d4d4d;}.cls-24{fill:#383838;}.cls-25{fill:#2a2a2a;}.cls-26{fill:#cca58a;}.cls-27{fill:#58575d;}.cls-28{fill:#3c3b41;}.cls-29{fill:#797780;}.cls-30{fill:#74c39b;}.cls-31{fill:#61b28a;}.cls-32{fill:#d9e6f7;}.cls-33,.cls-48{fill:#fff;}.cls-34{fill:#bcd1f2;}.cls-35{fill:#a2846e;}.cls-36{fill:#676699;}.cls-37{fill:#8a88cc;}.cls-38{fill:#7977b3;}.cls-39{fill:#ccbc52;}.cls-40{fill:#f1df60;}.cls-41{fill:#f1d512;}.cls-42{fill:#2373b3;}.cls-43{fill:#53abf2;}.cls-44{fill:#4792cf;}.cls-45{fill:#cc5928;}.cls-46{fill:#e77e51;}.cls-47{fill:#e7652d;}.cls-49{fill:#c1cce6;}.cls-50{fill:#2f2357;}.cls-51{fill:#2162b7;}.cls-52{fill:#fa706c;}.cls-53{fill:#24f2c4;}.cls-54{fill:#2993dc;}.cls-55{fill:#fafaff;}</style></defs><title>image_web-portfolio_v2</title><g id="image"><g id="table"><g id="table_shadow"><path class="cls-1" d="M24.52,184.63l102.3-61.38a5,5,0,0,1,5.14,0L318.28,235a5,5,0,0,1,0,8.57L216,305a5,5,0,0,1-5.15,0L24.52,193.21A5,5,0,0,1,24.52,184.63Z"/></g><g id="table_foots"><g id="foot_3"><rect class="cls-2" x="162.58" y="244.93" width="100.36" height="5.99" rx="2.99" transform="translate(-35.16 460.69) rotate(-90)"/><g id="foot_shadow_копия2_" data-name="foot_shadow (копия2)"><path class="cls-3" d="M211.76,297.92a3,3,0,0,1-2-2.81V200.74a3,3,0,0,1,2-2.81Z"/></g></g><g id="foot_2"><rect class="cls-2" x="-12.44" y="140.36" width="100.36" height="5.99" rx="2.99" transform="translate(185.12 127.55) rotate(98.63)"/><g id="foot_shadow_копия_" data-name="foot_shadow (копия)"><path class="cls-3" d="M46.23,94.07a3,3,0,0,1,1.55,3.07L33.61,190.45a3,3,0,0,1-2.39,2.48Z"/></g></g><g id="foot_1"><rect class="cls-2" x="256.68" y="190.27" width="100.36" height="5.99" rx="2.99" transform="translate(451.89 -139.13) rotate(81.37)"/><g id="foot_shadow"><path class="cls-3" d="M298.37,144a3,3,0,0,0-1.55,3.08L311,240.36a3,3,0,0,0,2.4,2.48Z"/></g></g></g><g id="table_main"><path class="cls-4" d="M320.06,151.08v-7l-107.3,66L21.53,94.55l-.05,5.7a5,5,0,0,0,2.41,4.33L210.18,217.16a5,5,0,0,0,5.17,0l102.3-61.8A5,5,0,0,0,320.06,151.08Z"/><path class="cls-5" d="M23.88,89.41,126.18,28a5,5,0,0,1,5.14,0L317.63,139.82a5,5,0,0,1,0,8.58L215.34,209.78a5,5,0,0,1-5.15,0L23.88,98A5,5,0,0,1,23.88,89.41Z"/></g></g><g id="chair"><g id="chair_leg"><g id="chair_trucks"><g id="chair_truck_down"><polygon class="cls-6" points="26.33 313.51 20.55 310.12 20.55 303.68 26.63 305.72 26.33 313.51"/><ellipse class="cls-6" cx="29.82" cy="307.46" rx="6.99" ry="4.03" transform="translate(-250.55 177.79) rotate(-59.64)"/><ellipse class="cls-6" cx="24.14" cy="304.14" rx="6.99" ry="4.03" transform="translate(-250.49 171.25) rotate(-59.64)"/></g><g id="chair_truck_up"><polygon class="cls-6" points="64.08 291.28 58.3 287.89 58.3 281.45 64.38 283.48 64.08 291.28"/><ellipse class="cls-6" cx="67.57" cy="285.23" rx="6.99" ry="4.03" transform="translate(-212.69 199.37) rotate(-59.64)"/><ellipse class="cls-6" cx="61.9" cy="281.9" rx="6.99" ry="4.03" transform="translate(-212.63 192.82) rotate(-59.64)"/></g><g id="chair_truck_left"><polygon class="cls-6" points="26.95 292.28 32.73 288.89 32.73 282.45 26.65 284.49 26.95 292.28"/><ellipse class="cls-6" cx="23.46" cy="286.23" rx="4.03" ry="6.99" transform="translate(-141.46 51.11) rotate(-30.36)"/><ellipse class="cls-6" cx="29.13" cy="282.9" rx="4.03" ry="6.99" transform="translate(-139 53.52) rotate(-30.36)"/></g><g id="chair_truck_right"><polygon class="cls-6" points="64.73 315.18 70.51 311.79 70.51 305.35 64.44 307.38 64.73 315.18"/><ellipse class="cls-6" cx="61.24" cy="309.12" rx="4.03" ry="6.99" transform="translate(-147.84 73.35) rotate(-30.36)"/><ellipse class="cls-6" cx="66.92" cy="305.8" rx="4.03" ry="6.99" transform="translate(-145.39 75.76) rotate(-30.36)"/></g></g><polygon class="cls-7" points="17.55 282.69 17.55 277.03 64.73 305.35 64.73 311.01 17.55 282.69"/><polygon class="cls-8" points="17.55 299.68 36.42 288.36 17.55 277.03 26.87 271.44 45.86 282.69 64.62 271.44 74.17 277.03 55.3 288.36 74.17 299.68 64.73 305.35 45.86 294.02 26.98 305.35 17.55 299.68"/><polygon class="cls-7" points="17.55 305.35 17.55 299.68 26.98 305.35 26.98 311.01 17.55 305.35"/><polygon class="cls-9" points="26.98 311.01 45.86 299.68 45.86 294.02 26.98 305.35 26.98 311.01"/><polygon class="cls-9" points="74.17 299.68 74.17 305.35 64.73 311.01 64.73 305.35 74.17 299.68"/><polygon class="cls-9" points="74.17 277.03 74.17 282.69 60.02 291.19 55.3 288.36 74.17 277.03"/><polygon class="cls-10" points="36.42 288.36 36.28 242.97 45.86 248.72 45.86 294.02 36.42 288.36"/><polygon class="cls-9" points="45.86 248.72 55.3 243.06 55.3 288.36 45.86 294.02 45.86 248.72"/></g><g id="chair_pen_left"><path class="cls-11" d="M5.65,233.85l-3.18-1.91V201.8a10.79,10.79,0,0,1,5.29-9.29L40,173.43a5.4,5.4,0,0,1,5.64.08l3.28,2.08L7.32,198.45Z"/><polygon class="cls-11" points="43.17 208.15 45.86 209.67 45.79 178.73 43.17 178.73 43.17 208.15"/><path class="cls-12" d="M5.65,233.85V203.67a10.8,10.8,0,0,1,5.24-9.26l32-19.17A5.4,5.4,0,0,1,51,179.87v26.76l-5.15,3-.46-24.78a2.7,2.7,0,0,0-4.08-2.27l-26.94,16a5.42,5.42,0,0,0-2.64,4.59l-.26,27.09Z"/></g><g id="chair_main"><path class="cls-13" d="M0,235.61v-7l55.39,35.44,55.39-35.44v7a5.39,5.39,0,0,1-2.57,4.6l-50,30.66a5.4,5.4,0,0,1-5.64,0l-50-30.66A5.4,5.4,0,0,1,0,235.61Z"/><path class="cls-4" d="M0,228.61v-9.17l55.39,35,55.39-35v9.11a5.39,5.39,0,0,1-2.58,4.61l-50,30.65a5.36,5.36,0,0,1-5.64,0l-50-30.65A5.41,5.41,0,0,1,0,228.61Z"/><path class="cls-5" d="M2.62,214.81l50-30a5.43,5.43,0,0,1,5.56,0l50,30a5.4,5.4,0,0,1,0,9.26l-50,30a5.39,5.39,0,0,1-5.56,0l-50-30A5.4,5.4,0,0,1,2.62,214.81Z"/></g><g id="human-2" data-name="human"><path class="cls-14" d="M120.28,251.41l32.68-6a2.85,2.85,0,0,1,1.9.26l.45.23a4.24,4.24,0,0,1,2.19,3.85v.94a5,5,0,0,1-2.86,4.44L124.84,268.7a3.32,3.32,0,0,1-4.86-2.24Z"/><path class="cls-14" d="M107.2,229l32.68-6a3,3,0,0,1,1.9.26l.45.23a4.24,4.24,0,0,1,2.19,3.85v.94a5,5,0,0,1-2.86,4.44l-29.81,13.57A3.32,3.32,0,0,1,106.9,244Z"/><path class="cls-15" d="M45.81,192.48S43,222.88,46.06,221c2.49-1.58,35.34-18.65,46.65-24.51a2.74,2.74,0,0,1,4.21,2.13l3.85,38.6,7.53-1.39a14.73,14.73,0,0,0,9-5.88h0a11.78,11.78,0,0,0,2.34-7.94l-4.44-48.84c-.44-4.82-4.9-7.42-9.47-5.52Z"/><path class="cls-16" d="M64.59,215.1s-2.77,30.4.25,28.49c2.49-1.59,35.34-18.65,46.65-24.51a2.74,2.74,0,0,1,4.2,2.13l3.86,38.59,7.53-1.38a14.75,14.75,0,0,0,9-5.88h0a11.78,11.78,0,0,0,2.34-7.94L134,195.76c-.44-4.82-4.9-7.42-9.48-5.52Z"/><polygon class="cls-17" points="83.67 170.36 98.32 167.47 99.5 173.46 85.17 177.98 83.67 170.36"/><path class="cls-18" d="M31.54,138.94,60,171.74a6.33,6.33,0,0,0,6.57,1.93l16.39-4.79A4.12,4.12,0,0,1,87.79,171l1.73,3.51a4.14,4.14,0,0,1-2.21,5.69l-23.83,9.23a11.41,11.41,0,0,1-12.82-3.28L25.51,156.29a1.58,1.58,0,0,1-.33-.69l-.63-3.2a13.77,13.77,0,0,1,5.21-13.65h0A1.31,1.31,0,0,1,31.54,138.94Z"/><path class="cls-19" d="M32.28,138.8l19,3.46.24-.34a10,10,0,0,1,6-4.09l6.61-1.52a3.25,3.25,0,0,0,2.5-2.71l1.3-9a71.67,71.67,0,0,0-.11-21l-1.22-7.94L41.49,100.4l-2.06,20.24a14.08,14.08,0,0,1-1,4Z"/><path class="cls-20" d="M35.32,137.6l12.12,3.11a11.48,11.48,0,0,1,5,2.78l8,7.64a11.6,11.6,0,0,1,3.2,5.38l11.9,44.59a21.06,21.06,0,0,1,.27,9.7l-2.79,13.54a14.42,14.42,0,0,1-15,11.45L45,235a10.53,10.53,0,0,1-9.74-8.9L25,159a14.34,14.34,0,0,1-.14-3.07l.31-4.95a19.9,19.9,0,0,1,3.91-10.66l.56-.74A5.43,5.43,0,0,1,35.32,137.6Z"/><polygon class="cls-17" points="111.13 188.41 125.78 185.52 126.96 191.5 112.63 196.02 111.13 188.41"/><path class="cls-18" d="M59.87,156.45l28.42,32.8a6.33,6.33,0,0,0,6.57,1.93l16.39-4.79a4.12,4.12,0,0,1,4.87,2.14l1.73,3.52a4.14,4.14,0,0,1-2.21,5.68L91.81,207A11.4,11.4,0,0,1,79,203.68L53.84,173.8a1.58,1.58,0,0,1-.33-.69l-.63-3.2a13.77,13.77,0,0,1,5.21-13.65h0A1.31,1.31,0,0,1,59.87,156.45Z"/><path class="cls-21" d="M41.08,131.05l1.94-.13a18.38,18.38,0,0,0,14.18-8.39l4.35-6.74a1,1,0,0,1,1.75.1l1.4,2.8,4.54-6.35A3.09,3.09,0,0,1,72,111.07l.47,0,.34-5.46a.94.94,0,0,1,1.66-.55l1,1.12-4.67-7a3,3,0,0,1-.09-3.1l.58-1-6.47-.4a1,1,0,0,1-.89-1.45l1-2.16-11.35-.71a19.68,19.68,0,0,0-12.34,3.41h0a17.77,17.77,0,0,0-4.72,4.75l-5.54,8.24,2.23,1.12a2.75,2.75,0,0,1,1.52,2.64l-.14,2.32,2.17,2.68a1.6,1.6,0,0,1,.36,1.13L36.58,124l-.19,3a3,3,0,0,0,2,3Z"/></g><g id="chair_back_2"><path class="cls-4" d="M8.88,150.21l9.2-5.51a6.51,6.51,0,0,1,6.72,0l41.83,25a6.52,6.52,0,0,1,3.17,5.6v50.25a6.5,6.5,0,0,1-3,5.5l-9.68,5.81,1.09-57.59Z"/><path class="cls-22" d="M5,152.72l3.92-2.51a6.51,6.51,0,0,1,6.72,0l41.83,25a6.53,6.53,0,0,1,3.17,5.59V231a6.5,6.5,0,0,1-3,5.5l-3.44,2.39-1.81-56.74Z"/><path class="cls-23" d="M2.25,158v50.5a6.52,6.52,0,0,0,3.16,5.59l41.72,25A6.52,6.52,0,0,0,57,233.54V183a6.51,6.51,0,0,0-3.17-5.59l-41.71-25A6.51,6.51,0,0,0,2.25,158Z"/></g><g id="chair_back_1"><polygon class="cls-13" points="18.12 202.09 33.24 211.16 28.19 214.19 13.06 205.12 18.12 202.09"/><polygon class="cls-24" points="13.06 253.49 13.06 205.12 28.19 214.19 28.19 262.57 13.06 253.49"/><polygon class="cls-25" points="33.24 211.16 33.24 259.24 28.19 262.57 28.19 214.19 33.24 211.16"/></g><g id="chair_pen_right"><path class="cls-11" d="M65.42,270l-3.19-1.91V237.91a10.82,10.82,0,0,1,5.3-9.29l32.22-19.08a5.4,5.4,0,0,1,5.64.09l3.28,2.07L67.09,234.56Z"/><polygon class="cls-11" points="102.94 244.26 105.63 245.79 105.56 214.85 102.94 214.85 102.94 244.26"/><path class="cls-12" d="M65.42,270V239.78a10.8,10.8,0,0,1,5.24-9.26l31.94-19.16a5.4,5.4,0,0,1,8.18,4.63v26.75l-5.15,3L105.16,221a2.7,2.7,0,0,0-4.08-2.27L74.14,234.79a5.41,5.41,0,0,0-2.63,4.58l-.27,27.09Z"/></g></g><g id="environment"><g id="flower"><g id="flower_ground"><polygon class="cls-26" points="268.75 130.18 258.26 136.57 268.76 142.89 279.24 136.47 268.75 130.18"/></g><g id="flower_main"><polygon class="cls-27" points="254.76 152.51 254.76 135.71 268.76 144.11 268.77 160.91 254.76 152.51"/><polygon class="cls-28" points="282.78 135.72 282.77 152.51 268.77 160.91 268.76 144.11 282.78 135.72"/><polygon class="cls-28" points="268.76 128.99 268.76 130.97 259.44 136.75 258.87 137.06 257.05 135.6 268.76 128.23 268.76 128.99"/><polygon class="cls-27" points="268.76 128.99 268.76 130.97 278.25 136.59 278.94 137.06 280.92 135.71 268.8 128.4 268.76 128.99"/><g id="Слой_42" data-name="Слой 42"><path class="cls-29" d="M268.76,127.31l-14,8.4,14,8.4,14-8.39Zm-11.08,8.41L268.76,129l11.15,6.61-11.15,6.61Z"/></g></g><g id="flower_cactus"><g id="Слой_47" data-name="Слой 47"><path class="cls-30" d="M278.56,118.68h0a2.79,2.79,0,0,1,2.79,2.79v6a4,4,0,0,1-4,4H270.2v-5.51h3.56a2,2,0,0,0,2-2v-2.47A2.79,2.79,0,0,1,278.56,118.68Z"/><path class="cls-31" d="M278.74,118.7a6.25,6.25,0,0,0-.76,3.07v4c0,1.79-.9,3.24-2,3.23l-3.57,0v2.47h4.94a4,4,0,0,0,4-4v-6A2.78,2.78,0,0,0,278.74,118.7Z"/></g><g id="Слой_46" data-name="Слой 46"><path class="cls-30" d="M259,109.34h0a2.79,2.79,0,0,0-2.79,2.79v6a4,4,0,0,0,4,4h7.15v-5.51h-3.57a2,2,0,0,1-2-2v-2.47A2.79,2.79,0,0,0,259,109.34Z"/><path class="cls-31" d="M261.77,114.6v-2.47a2.79,2.79,0,0,0-2.79-2.79l-.2,0a2.76,2.76,0,0,0-.18,1v6a4,4,0,0,0,4,4h4.74v-3.69h-3.57A2,2,0,0,1,261.77,114.6Z"/></g><g id="Слой_45" data-name="Слой 45"><path class="cls-30" d="M272.53,138.24l-.11,0a10.59,10.59,0,0,1-7.26,0l-.18-.07a2,2,0,0,1-1.32-1.88V113.66a5.09,5.09,0,0,1,5.09-5.09h0a5.09,5.09,0,0,1,5.09,5.09v22.7A2,2,0,0,1,272.53,138.24Z"/><path class="cls-31" d="M268.75,108.57a5.09,5.09,0,0,1,5.09,5.09v22.7a2,2,0,0,1-1.31,1.88l-.11,0a10.52,10.52,0,0,1-3.62.65"/></g></g></g><g id="cup"><g id="cup_main"><path class="cls-32" d="M246.68,166.27h0c2.95.71,5,2.31,5.3,4.18h0c.64,3.82-5.85,6.7-11.87,5.26h0c-3-.7-5-2.31-5.3-4.18h0C234.17,167.71,240.66,164.84,246.68,166.27Z"/><polygon class="cls-32" points="234.76 170.99 234.79 154 243.76 158.03 252.04 154 252.02 170.99 244.04 170.99 234.76 170.99"/><path class="cls-33" d="M246.7,149.28h0c3,.7,5,2.31,5.3,4.18h0c.64,3.82-5.85,6.7-11.87,5.26h0c-2.95-.7-5-2.31-5.3-4.18h0C234.19,150.72,240.68,147.84,246.7,149.28Z"/><path class="cls-34" d="M246.15,150h0c2.48.6,4.19,1.95,4.45,3.52h0c.54,3.21-4.91,5.62-10,4.41h0c-2.47-.59-4.18-1.94-4.45-3.51h0C235.64,151.24,241.1,148.83,246.15,150Z"/><g id="cup_coffe"><path class="cls-35" d="M246,151.87h0c-4.24-1-8.74.54-9.75,3,.46,1.41,2.07,2.59,4.34,3.13h0c4.22,1,8.69-.5,9.76-2.89C250,153.64,248.35,152.42,246,151.87Z"/></g></g><g id="cup_pen"><path class="cls-34" d="M248.38,161l1.9-1.13,2.49,1.57a2.18,2.18,0,0,1,1,1.81v5.5a1,1,0,0,1-.48.84l-1.5.87v-6.72a1,1,0,0,0-.62-.92Z"/><polygon class="cls-34" points="250.39 166.99 251.66 167.74 251.37 170.06 248.38 168.12 250.39 166.99"/><path class="cls-33" d="M250.83,162.38,248.38,161v.88l1.4.81a2.33,2.33,0,0,1,1.15,1.73v4.14c0,.59-.51.77-1.15.4l-1.4-.81V169l.05.05,2.4,1.38c.66.38,1.19.08,1.19-.68v-5.32A2.62,2.62,0,0,0,250.83,162.38Z"/></g></g><g id="books"><g id="book_php"><polygon class="cls-36" points="100.8 48.97 128.8 32.16 145.72 42.31 117.72 59.14 100.8 48.97"/><polygon class="cls-37" points="100.8 45.27 128.8 28.47 145.72 38.62 117.72 55.44 100.8 45.27"/><polygon class="cls-38" points="145.72 42.73 145.72 38.62 117.72 55.44 117.72 59.53 145.72 42.73"/><path class="cls-33" d="M102.42,46.65v.1a15.69,15.69,0,0,0,0,3.14v0l14.89,9V55.71Z"/><polygon class="cls-38" points="117.72 55.44 117.72 59.53 100.8 49.38 100.8 48.96 117.31 58.89 117.31 55.71 100.8 45.66 100.8 45.27 117.72 55.44"/><g id="book_text"><path class="cls-33" d="M129.53,30.52l1.71,1c1,.63,1.46,1.41.1,2.22a3.61,3.61,0,0,1-3.78,0l-.62-.37L125,34.55,124,33.89Zm-1,2.62a1.62,1.62,0,0,0,1.78,0c.58-.35.48-.67-.09-1l-.56-.34-1.68,1Z"/><path class="cls-33" d="M133.9,33.16l1.09.66-2.14,1.3,1.31.79,2.15-1.3,1.09.66-5.58,3.37L130.73,38l2.33-1.41-1.32-.79-2.33,1.4-1.09-.66Z"/><path class="cls-33" d="M138.43,35.89l1.71,1c1.05.63,1.46,1.4.1,2.22a3.63,3.63,0,0,1-3.78,0l-.62-.38-1.9,1.14-1.09-.66Zm-1,2.62a1.62,1.62,0,0,0,1.78,0c.58-.35.48-.66-.09-1l-.56-.33-1.68,1Z"/></g></g><g id="book_js"><polygon class="cls-39" points="88.58 57.9 113.21 36.45 131.65 43.48 107.02 64.95 88.58 57.9"/><polygon class="cls-40" points="87.93 54.26 112.56 32.81 131 39.84 106.37 61.31 87.93 54.26"/><polygon class="cls-41" points="131.72 43.89 131 39.84 106.37 61.31 107.09 65.34 131.72 43.89"/><path class="cls-33" d="M89.78,55.33v.11a15.3,15.3,0,0,0,.55,3.08v0l16.23,6.21L106,61.64Z"/><polygon class="cls-41" points="106.37 61.31 107.09 65.34 88.65 58.31 88.58 57.89 106.58 64.78 106.02 61.64 88 54.65 87.93 54.26 106.37 61.31"/><g id="book_text_копия_" data-name="book_text (копия)"><g id="JS"><path class="cls-33" d="M111.33,39.39l1.37-.34a.74.74,0,0,0,.47.86,1.54,1.54,0,0,0,1.7-.46l2.22-1.94L115,36.72l.93-.82,3.25,1.25L116,40a3.54,3.54,0,0,1-3.72.78A1.22,1.22,0,0,1,111.33,39.39Z"/><path class="cls-33" d="M116,41.32l1.44-.41a1.39,1.39,0,0,0,.89,1,1.13,1.13,0,0,0,1.16-.09c.36-.3.13-.5-.17-.86l-.42-.5c-.38-.41-.49-1,.22-1.6a3.53,3.53,0,0,1,3.39-.54,1.56,1.56,0,0,1,1.11,1.24l-1.3.38a1.19,1.19,0,0,0-.83-.8,1.05,1.05,0,0,0-1.1.13c-.29.25-.05.48.28.83l.39.47c.45.48.49,1-.2,1.6a3.64,3.64,0,0,1-3.56.55A1.87,1.87,0,0,1,116,41.32Z"/></g></g></g><g id="book_css"><polygon class="cls-42" points="74.81 67.06 94.78 41.22 114.23 44.52 94.27 70.38 74.81 67.06"/><polygon class="cls-43" points="73.46 63.62 93.43 37.77 112.88 41.07 92.92 66.94 73.46 63.62"/><polygon class="cls-44" points="114.38 44.9 112.88 41.07 92.92 66.94 94.41 70.74 114.38 44.9"/><path class="cls-33" d="M75.48,64.31l0,.1a15.28,15.28,0,0,0,1.15,2.92l0,0L93.8,70.29l-1.15-3Z"/><polygon class="cls-44" points="92.92 66.94 94.41 70.74 74.96 67.45 74.81 67.05 93.8 70.29 92.64 67.33 73.61 63.98 73.46 63.62 92.92 66.94"/><g id="book_text_копия2_" data-name="book_text (копия2)"><g id="CSS"><path class="cls-33" d="M93.27,41.93A5.26,5.26,0,0,1,98,39.68a1.32,1.32,0,0,1,1.16.94l-1.25.61a.77.77,0,0,0-.68-.54,3.05,3.05,0,0,0-2.64,1.42c-.82,1.06-.72,1.78.12,1.92a2.35,2.35,0,0,0,1.36-.28l.14.83a3.87,3.87,0,0,1-2.4.44C92.43,44.78,91.93,43.67,93.27,41.93Z"/><path class="cls-33" d="M96.9,44.71,98.24,44a1.38,1.38,0,0,0,1.07.79,1.14,1.14,0,0,0,1.12-.31c.28-.37,0-.52-.35-.81l-.5-.42c-.45-.32-.68-.85-.1-1.61a3.53,3.53,0,0,1,3.22-1.18,1.54,1.54,0,0,1,1.33,1l-1.2.63a1.22,1.22,0,0,0-1-.63,1,1,0,0,0-1,.35c-.24.31,0,.48.44.76l.47.39c.54.37.67.87.11,1.6a3.62,3.62,0,0,1-3.39,1.23A1.84,1.84,0,0,1,96.9,44.71Z"/><path class="cls-33" d="M102,45.58l1.34-.67a1.38,1.38,0,0,0,1.07.79,1.13,1.13,0,0,0,1.12-.31c.29-.37,0-.52-.35-.81l-.5-.42c-.45-.32-.67-.85-.1-1.61a3.55,3.55,0,0,1,3.23-1.18,1.53,1.53,0,0,1,1.32,1L108,43a1.22,1.22,0,0,0-1-.63,1.07,1.07,0,0,0-1,.34c-.24.31,0,.49.44.77l.47.38c.54.38.67.88.11,1.61a3.61,3.61,0,0,1-3.38,1.23A1.83,1.83,0,0,1,102,45.58Z"/></g></g></g><g id="book_html"><polygon class="cls-45" points="64.03 71.05 89.62 50.75 107.71 58.62 82.13 78.94 64.03 71.05"/><polygon class="cls-46" points="63.55 67.38 89.14 47.09 107.23 54.96 81.65 75.28 63.55 67.38"/><polygon class="cls-47" points="107.77 59.03 107.23 54.96 81.65 75.28 82.18 79.33 107.77 59.03"/><path class="cls-33" d="M65.34,68.54v.11a15.5,15.5,0,0,0,.41,3.1v0L81.7,78.74l-.42-3.15Z"/><polygon class="cls-47" points="81.65 75.28 82.18 79.33 64.08 71.46 64.03 71.04 81.69 78.74 81.28 75.59 63.6 67.77 63.55 67.38 81.65 75.28"/><g id="book_text_копия3_" data-name="book_text (копия3)"><g id="HTML"><path class="cls-33" d="M89.15,49.32l.94.41L88.52,51l1.12.49,1.57-1.25.93.41-4.07,3.25-.94-.41,1.7-1.36-1.12-.49L86,53l-.94-.41Z"/><path class="cls-33" d="M93.21,52.05,92,51.51l.78-.62,3.41,1.5-.77.61-1.24-.54-3.3,2.63-.94-.41Z"/><path class="cls-33" d="M96.72,52.63l1,.43-1,1.33-.43.51h0l.7-.39,1.85-1,1,.43-4.07,3.25-.8-.35,1.27-1c.45-.37,1.53-1.13,2-1.46h0l-1.42.74-1.3.64-.45-.2.65-.93.8-1h0c-.4.37-1.31,1.2-1.77,1.57l-1.26,1-.78-.34Z"/><path class="cls-33" d="M100.84,54.44l.94.4-3.31,2.64,1.85.8-.78.62-2.77-1.22Z"/></g></g></g></g><g id="phone"><g id="phone_main"><path class="cls-4" d="M87.93,87V85.21l11.28,7L126,75.87v1.9a1,1,0,0,1-.48.85L100,94.23a1,1,0,0,1-1,0L88.42,87.85A1,1,0,0,1,87.93,87Z"/><path class="cls-32" d="M125.52,75l-10.28-6.2a1,1,0,0,0-1,0L88.42,84.36a1,1,0,0,0,0,1.71l10.28,6.2a1,1,0,0,0,1,0l25.79-15.55A1,1,0,0,0,125.52,75Z"/></g><g id="phone_screen"><polygon class="cls-9" points="123.41 76.69 113.38 70.64 92.12 83.46 102.14 89.51 123.41 76.69"/><polygon class="cls-48" points="94.49 84.9 120.42 74.89 113.38 70.64 92.12 83.46 94.49 84.9"/></g><g id="phone_button"><path class="cls-4" d="M96.11,86.5a2.83,2.83,0,0,0-2.66.12c-.79.47-.87,1.19-.19,1.6a2.83,2.83,0,0,0,2.66-.11C96.71,87.63,96.79,86.92,96.11,86.5ZM93.6,88c-.52-.31-.45-.85.14-1.21a2.16,2.16,0,0,1,2-.08c.52.31.45.85-.14,1.2A2.13,2.13,0,0,1,93.6,88Z"/></g></g><g id="mouse"><g id="mouse_main"><polygon class="cls-4" points="198.76 169.31 198.76 169.89 205.76 174.12 219.76 165.66 219.76 165.11 210.95 166.64 205.76 173.51 198.76 169.31"/><path class="cls-32" d="M198.76,169.31l2.94-2.84a20,20,0,0,1,8.9-5l2.16-.56,7,4.2-3,.87a20,20,0,0,0-8.67,5.16l-2.34,2.37Z"/><polygon class="cls-4" points="208.54 162.13 215.26 166.48 215.37 166.44 208.6 162.1 208.54 162.13"/><polygon class="cls-4" points="215.41 162.5 211.34 163.89 211.48 163.97 215.47 162.53 215.41 162.5"/></g></g><g id="keybord"><g id="keybord_main"><path class="cls-4" d="M191.29,142.35v-2.44l-20.53,12.28-55.54-33.28v2.54a.51.51,0,0,0,.24.43l55.05,33a.49.49,0,0,0,.52,0l20-12.09A.49.49,0,0,0,191.29,142.35Z"/><path class="cls-32" d="M115.46,118.48l20-12a.49.49,0,0,1,.52,0l55,33a.5.5,0,0,1,0,.86l-20,12a.52.52,0,0,1-.51,0l-55-33A.5.5,0,0,1,115.46,118.48Z"/></g><g id="keys_shadow"><path class="cls-4" d="M135.11,110.94l-2.21-1.28c-.24-.14-.21-.38.07-.54l1.5-.86a1,1,0,0,1,.94,0l2.2,1.27c.24.14.21.38-.29.67l-1,.61A1.21,1.21,0,0,1,135.11,110.94Z"/><path class="cls-4" d="M131.12,113.63l-2.21-1.27c-.24-.14-.21-.38.07-.54l1.5-.87a1,1,0,0,1,.93,0l2.21,1.28c.24.13.21.37-.29.66l-1.06.61A1.19,1.19,0,0,1,131.12,113.63Z"/><path class="cls-4" d="M134.53,115.66l-2.2-1.28c-.24-.13-.21-.38.06-.53l1.51-.87a1,1,0,0,1,.93,0l2.21,1.27c.24.14.21.38-.29.67l-1.06.61A1.21,1.21,0,0,1,134.53,115.66Z"/><path class="cls-4" d="M137.83,117.63l-2.21-1.28c-.24-.13-.21-.37.07-.53l1.5-.87a1,1,0,0,1,.94,0l2.2,1.27c.24.14.21.38-.29.67l-1,.61A1.21,1.21,0,0,1,137.83,117.63Z"/><path class="cls-4" d="M141.11,119.57l-2.2-1.27c-.24-.14-.21-.38.06-.54l1.51-.87a1.05,1.05,0,0,1,.93,0l2.21,1.28c.23.14.2.38-.29.66l-1.06.62A1.23,1.23,0,0,1,141.11,119.57Z"/><path class="cls-4" d="M144.36,121.52l-2.21-1.28c-.24-.14-.21-.38.07-.54l1.5-.87a1.05,1.05,0,0,1,.93,0l2.21,1.27c.24.14.21.38-.29.67l-1.06.61A1.22,1.22,0,0,1,144.36,121.52Z"/><path class="cls-4" d="M147.58,123.5l-2.21-1.27c-.24-.14-.21-.38.07-.54l1.5-.87a1,1,0,0,1,.93,0l2.21,1.28c.24.13.21.38-.29.66l-1.06.61A1.19,1.19,0,0,1,147.58,123.5Z"/><path class="cls-4" d="M150.9,125.49l-2.21-1.28c-.24-.14-.21-.38.06-.54l1.51-.86a1,1,0,0,1,.93,0L153.4,124c.24.14.21.38-.29.67l-1.06.61A1.19,1.19,0,0,1,150.9,125.49Z"/><path class="cls-4" d="M154.11,127.48l-2.21-1.28c-.24-.13-.21-.38.07-.53l1.5-.87a1,1,0,0,1,.93,0l2.21,1.27c.24.14.21.38-.29.67l-1.06.61A1.19,1.19,0,0,1,154.11,127.48Z"/><path class="cls-4" d="M157.49,129.48l-2.21-1.27c-.24-.14-.21-.38.07-.54l1.5-.87a1.05,1.05,0,0,1,.93,0L160,128c.24.14.21.38-.29.67l-1.06.61A1.21,1.21,0,0,1,157.49,129.48Z"/><path class="cls-4" d="M160.83,131.45l-2.21-1.28c-.24-.14-.21-.38.06-.54l1.51-.87a1,1,0,0,1,.93,0l2.21,1.27c.24.14.21.38-.29.67l-1.06.61A1.22,1.22,0,0,1,160.83,131.45Z"/><path class="cls-4" d="M164.24,133.51l-2.2-1.28c-.24-.14-.21-.38.06-.54l1.5-.86a1,1,0,0,1,.94,0l2.21,1.27c.23.14.2.38-.29.67l-1.06.61A1.21,1.21,0,0,1,164.24,133.51Z"/><path class="cls-4" d="M167.52,135.46l-2.21-1.28c-.24-.13-.21-.37.07-.53l1.5-.87a1,1,0,0,1,.93,0L170,134c.24.14.21.38-.29.67l-1.06.61A1.19,1.19,0,0,1,167.52,135.46Z"/><path class="cls-4" d="M170.81,137.43l-2.21-1.27c-.24-.14-.21-.38.07-.54l1.5-.87a1.06,1.06,0,0,1,.93,0l2.21,1.28c.24.14.21.38-.29.67l-1.05.61A1.23,1.23,0,0,1,170.81,137.43Z"/><path class="cls-4" d="M174.06,139.41l-2.21-1.27c-.24-.14-.21-.38.07-.54l1.5-.87a1,1,0,0,1,.94,0l2.2,1.28c.24.14.21.38-.29.66l-1.05.62A1.23,1.23,0,0,1,174.06,139.41Z"/><path class="cls-4" d="M177.34,141.4l-2.21-1.28c-.24-.13-.21-.38.07-.54l1.5-.86a1,1,0,0,1,.93,0l2.21,1.27c.24.14.21.38-.29.67l-1.06.61A1.19,1.19,0,0,1,177.34,141.4Z"/><path class="cls-4" d="M180.74,143.36l-2.21-1.27c-.24-.14-.21-.38.07-.54l1.5-.87a1.05,1.05,0,0,1,.93,0l2.21,1.28c.24.14.21.38-.29.66l-1.06.62A1.21,1.21,0,0,1,180.74,143.36Z"/><path class="cls-4" d="M128.31,115.29,126.1,114c-.24-.14-.21-.38.07-.54l1.5-.87a1,1,0,0,1,.93,0l2.21,1.27c.24.14.21.38-.29.67l-1.06.61A1.18,1.18,0,0,1,128.31,115.29Z"/><path class="cls-4" d="M131.72,117.32l-2.21-1.27c-.24-.14-.21-.38.07-.54l1.5-.87a1.08,1.08,0,0,1,.94,0l2.2,1.28c.24.14.21.38-.28.66l-1.06.62A1.23,1.23,0,0,1,131.72,117.32Z"/><path class="cls-4" d="M135,119.29,132.81,118c-.24-.14-.21-.38.07-.54l1.5-.87a1.05,1.05,0,0,1,.93,0l2.21,1.28c.24.14.21.38-.29.67l-1.06.61A1.21,1.21,0,0,1,135,119.29Z"/><path class="cls-4" d="M138.3,121.24,136.09,120c-.24-.14-.21-.38.07-.54l1.5-.86a1,1,0,0,1,.93,0l2.21,1.27c.24.14.21.38-.29.67l-1.06.61A1.22,1.22,0,0,1,138.3,121.24Z"/><path class="cls-4" d="M141.54,123.18l-2.2-1.28c-.24-.13-.21-.37.06-.53l1.51-.87a1,1,0,0,1,.93,0l2.21,1.27c.24.14.21.38-.29.67l-1.06.61A1.21,1.21,0,0,1,141.54,123.18Z"/><path class="cls-4" d="M144.77,125.17l-2.21-1.28c-.24-.14-.21-.38.06-.54l1.51-.87a1.05,1.05,0,0,1,.93,0l2.21,1.27c.24.14.21.38-.29.67l-1.06.61A1.22,1.22,0,0,1,144.77,125.17Z"/><path class="cls-4" d="M148.08,127.15l-2.21-1.27c-.23-.14-.2-.38.07-.54l1.5-.87a1,1,0,0,1,.94,0l2.2,1.28c.24.13.21.38-.28.66l-1.06.61A1.21,1.21,0,0,1,148.08,127.15Z"/><path class="cls-4" d="M151.29,129.14l-2.2-1.27c-.24-.14-.21-.38.06-.54l1.51-.87a1.05,1.05,0,0,1,.93,0l2.21,1.28c.24.14.21.38-.29.66l-1.06.62A1.23,1.23,0,0,1,151.29,129.14Z"/><path class="cls-4" d="M154.67,131.15l-2.2-1.28c-.24-.13-.21-.38.06-.54l1.51-.86a1,1,0,0,1,.93,0l2.21,1.27c.23.14.2.38-.29.67l-1.06.61A1.21,1.21,0,0,1,154.67,131.15Z"/><path class="cls-4" d="M158,133.11l-2.21-1.28c-.24-.13-.21-.37.07-.53l1.5-.87a1,1,0,0,1,.94,0l2.2,1.27c.24.14.21.38-.28.67l-1.06.61A1.21,1.21,0,0,1,158,133.11Z"/><path class="cls-4" d="M161.43,135.17l-2.21-1.27c-.24-.14-.21-.38.07-.54l1.5-.87a1,1,0,0,1,.93,0l2.21,1.28c.24.14.21.38-.29.66l-1.06.62A1.21,1.21,0,0,1,161.43,135.17Z"/><path class="cls-4" d="M164.7,137.12l-2.2-1.27c-.24-.14-.21-.38.06-.54l1.5-.87a1.08,1.08,0,0,1,.94,0l2.21,1.28c.23.14.2.38-.29.67l-1.06.61A1.23,1.23,0,0,1,164.7,137.12Z"/><path class="cls-4" d="M168,139.1l-2.21-1.28c-.24-.13-.21-.38.07-.54l1.5-.86a1,1,0,0,1,.93,0l2.21,1.27c.24.14.21.38-.29.67l-1.06.61A1.19,1.19,0,0,1,168,139.1Z"/><path class="cls-4" d="M171.25,141.08,169,139.8c-.24-.14-.21-.38.07-.54l1.5-.86a1,1,0,0,1,.93,0l2.21,1.27c.24.14.21.38-.29.67l-1.06.61A1.22,1.22,0,0,1,171.25,141.08Z"/><path class="cls-4" d="M174.52,143.06l-2.21-1.27c-.23-.14-.2-.38.07-.54l1.5-.87a1,1,0,0,1,.94,0l2.2,1.28c.24.14.21.38-.28.66l-1.06.62A1.23,1.23,0,0,1,174.52,143.06Z"/><path class="cls-4" d="M177.92,145l-2.2-1.28c-.24-.14-.21-.38.06-.54l1.51-.86a1,1,0,0,1,.93,0l2.21,1.27c.24.14.21.38-.29.67l-1.06.61A1.24,1.24,0,0,1,177.92,145Z"/><path class="cls-4" d="M125.78,117.19l-2.21-1.27c-.24-.14-.21-.38.07-.54l1.5-.87a1.08,1.08,0,0,1,.94,0l2.2,1.28c.24.14.21.38-.28.67l-1.06.61A1.23,1.23,0,0,1,125.78,117.19Z"/><path class="cls-4" d="M129.2,119.22,127,118c-.24-.14-.21-.38.07-.54l1.5-.87a1,1,0,0,1,.93,0l2.21,1.28c.24.13.21.38-.29.66l-1.06.61A1.19,1.19,0,0,1,129.2,119.22Z"/><path class="cls-4" d="M132.49,121.19l-2.21-1.27c-.23-.14-.2-.38.07-.54l1.5-.87a1,1,0,0,1,.94,0l2.2,1.28c.24.14.21.38-.28.66l-1.06.62A1.23,1.23,0,0,1,132.49,121.19Z"/><path class="cls-4" d="M135.78,123.14l-2.21-1.28c-.24-.14-.21-.38.06-.54l1.51-.87a1.05,1.05,0,0,1,.93,0l2.21,1.27c.24.14.21.38-.29.67l-1.06.61A1.22,1.22,0,0,1,135.78,123.14Z"/><path class="cls-4" d="M139,125.08l-2.21-1.28c-.24-.13-.21-.38.07-.54l1.5-.86a1,1,0,0,1,.93,0l2.21,1.27c.24.14.21.38-.29.67l-1.06.61A1.19,1.19,0,0,1,139,125.08Z"/><path class="cls-4" d="M142.24,127.06,140,125.79c-.24-.14-.21-.38.07-.54l1.5-.87a1.06,1.06,0,0,1,.93,0l2.21,1.28c.24.14.21.38-.29.67l-1.06.61A1.21,1.21,0,0,1,142.24,127.06Z"/><path class="cls-4" d="M145.56,129.05l-2.21-1.27c-.24-.14-.21-.38.07-.54l1.5-.87a1,1,0,0,1,.93,0l2.21,1.28c.24.13.21.37-.29.66l-1.06.61A1.19,1.19,0,0,1,145.56,129.05Z"/><path class="cls-4" d="M148.77,131l-2.21-1.27c-.24-.14-.21-.38.07-.54l1.5-.87a1,1,0,0,1,.93,0l2.21,1.28c.24.13.21.38-.29.66l-1.06.61A1.19,1.19,0,0,1,148.77,131Z"/><path class="cls-4" d="M152.15,133.05l-2.21-1.28c-.24-.14-.21-.38.07-.54l1.5-.86a1,1,0,0,1,.93,0l2.21,1.27c.24.14.21.38-.29.67l-1.06.61A1.22,1.22,0,0,1,152.15,133.05Z"/><path class="cls-4" d="M155.49,135l-2.21-1.28c-.24-.13-.21-.38.07-.54l1.5-.86a1,1,0,0,1,.93,0l2.21,1.27c.24.14.21.38-.29.67l-1.06.61A1.19,1.19,0,0,1,155.49,135Z"/><path class="cls-4" d="M158.91,137.07l-2.21-1.27c-.24-.14-.21-.38.06-.54l1.51-.87a1,1,0,0,1,.93,0l2.21,1.28c.24.13.21.37-.29.66l-1.06.61A1.19,1.19,0,0,1,158.91,137.07Z"/><path class="cls-4" d="M162.18,139,160,137.75c-.24-.14-.21-.38.07-.54l1.5-.87a1,1,0,0,1,.93,0l2.21,1.28c.24.14.21.38-.29.66l-1.06.62A1.21,1.21,0,0,1,162.18,139Z"/><path class="cls-4" d="M165.47,141l-2.21-1.28c-.23-.14-.2-.38.07-.54l1.5-.86a1,1,0,0,1,.94,0l2.2,1.27c.24.14.21.38-.28.67l-1.06.61A1.24,1.24,0,0,1,165.47,141Z"/><path class="cls-4" d="M168.72,143l-2.2-1.27c-.24-.14-.21-.38.06-.54l1.5-.87a1,1,0,0,1,.94,0l2.21,1.27c.23.14.2.38-.29.67l-1.06.61A1.2,1.2,0,0,1,168.72,143Z"/><path class="cls-4" d="M172,145l-2.21-1.27c-.24-.14-.21-.38.07-.54l1.5-.87a1,1,0,0,1,.93,0l2.21,1.28c.24.13.21.38-.29.66l-1.06.61A1.19,1.19,0,0,1,172,145Z"/><path class="cls-4" d="M175.4,146.93l-2.21-1.28c-.24-.14-.21-.38.07-.54l1.5-.87a1.05,1.05,0,0,1,.93,0l2.21,1.27c.24.14.21.38-.29.67l-1.06.61A1.22,1.22,0,0,1,175.4,146.93Z"/><path class="cls-4" d="M123.26,119.15l-2.21-1.28c-.24-.14-.21-.38.07-.54l1.5-.87a1.05,1.05,0,0,1,.93,0l2.21,1.27c.24.14.21.38-.29.67l-1.06.61A1.22,1.22,0,0,1,123.26,119.15Z"/><path class="cls-4" d="M126.67,121.17l-2.21-1.27c-.23-.14-.2-.38.07-.54l1.5-.87a1.08,1.08,0,0,1,.94,0l2.2,1.28c.24.14.21.38-.28.67l-1.06.61A1.23,1.23,0,0,1,126.67,121.17Z"/><path class="cls-4" d="M130,123.14l-2.21-1.27c-.24-.14-.21-.38.07-.54l1.5-.87a1.06,1.06,0,0,1,.93,0l2.21,1.28c.24.14.21.38-.29.67l-1.06.61A1.21,1.21,0,0,1,130,123.14Z"/><path class="cls-4" d="M133.25,125.09,131,123.81c-.24-.14-.21-.38.07-.54l1.5-.86a1,1,0,0,1,.94,0l2.2,1.27c.24.14.21.38-.29.67l-1.05.61A1.21,1.21,0,0,1,133.25,125.09Z"/><path class="cls-4" d="M136.49,127l-2.2-1.27c-.24-.14-.21-.38.06-.54l1.51-.87a1,1,0,0,1,.93,0l2.21,1.28c.24.13.21.37-.29.66l-1.06.61A1.21,1.21,0,0,1,136.49,127Z"/><path class="cls-4" d="M156,138.78l-2.21-1.28c-.24-.13-.21-.37.07-.53l1.5-.87a1,1,0,0,1,.93,0l2.21,1.27c.24.14.21.38-.29.67l-1.06.61A1.19,1.19,0,0,1,156,138.78Z"/><path class="cls-4" d="M159.27,140.73l-2.21-1.27c-.24-.14-.21-.38.07-.54l1.5-.87a1,1,0,0,1,.93,0l2.21,1.28c.24.13.21.38-.29.66l-1.06.61A1.19,1.19,0,0,1,159.27,140.73Z"/><path class="cls-4" d="M162.56,142.7l-2.2-1.27c-.24-.14-.21-.38.06-.54l1.5-.87a1,1,0,0,1,.94,0l2.21,1.27c.23.14.2.38-.29.67l-1.06.61A1.2,1.2,0,0,1,162.56,142.7Z"/><path class="cls-4" d="M165.81,144.68l-2.2-1.27c-.24-.14-.21-.38.06-.54l1.51-.87a1.05,1.05,0,0,1,.93,0l2.21,1.28c.24.14.21.38-.29.67l-1.06.61A1.23,1.23,0,0,1,165.81,144.68Z"/><path class="cls-4" d="M169.09,146.67l-2.21-1.28c-.24-.13-.21-.37.07-.53l1.5-.87a1,1,0,0,1,.93,0l2.21,1.27c.24.14.21.38-.29.67l-1.06.61A1.19,1.19,0,0,1,169.09,146.67Z"/><path class="cls-4" d="M172.49,148.63l-2.21-1.27c-.24-.14-.21-.38.07-.54l1.5-.87a1.06,1.06,0,0,1,.93,0l2.21,1.28c.24.14.21.38-.29.67l-1.06.61A1.21,1.21,0,0,1,172.49,148.63Z"/><path class="cls-4" d="M141.62,114.88l-2.21-1.28c-.24-.14-.21-.38.07-.54l1.5-.86a1,1,0,0,1,.93,0l2.21,1.27c.24.14.21.38-.29.67l-1.06.61A1.22,1.22,0,0,1,141.62,114.88Z"/><path class="cls-4" d="M145.07,116.9l-2.21-1.28c-.24-.14-.21-.38.07-.54l1.5-.87a1.05,1.05,0,0,1,.93,0l2.21,1.27c.24.14.21.38-.29.67l-1.06.61A1.22,1.22,0,0,1,145.07,116.9Z"/><path class="cls-4" d="M148.39,118.78l-2.21-1.27c-.24-.14-.21-.38.07-.54l1.5-.87a1,1,0,0,1,.93,0l2.21,1.28c.24.13.21.38-.29.66l-1.06.61A1.19,1.19,0,0,1,148.39,118.78Z"/><path class="cls-4" d="M151.86,120.74l-2.2-1.27c-.24-.14-.21-.38.06-.54l1.5-.87a1,1,0,0,1,.94,0l2.21,1.28c.23.13.2.38-.29.66l-1.06.61A1.21,1.21,0,0,1,151.86,120.74Z"/><path class="cls-4" d="M158.32,124.73l-2.21-1.28c-.24-.14-.21-.38.07-.54l1.5-.86a1,1,0,0,1,.93,0l2.21,1.27c.24.14.21.38-.29.67l-1.06.61A1.22,1.22,0,0,1,158.32,124.73Z"/><path class="cls-4" d="M161.77,126.73l-2.2-1.28c-.24-.14-.21-.38.06-.54l1.51-.86a1,1,0,0,1,.93,0l2.21,1.27c.24.14.21.38-.29.67l-1.06.61A1.24,1.24,0,0,1,161.77,126.73Z"/><path class="cls-4" d="M165.15,128.71l-2.2-1.27c-.24-.14-.21-.38.06-.54l1.51-.87a1.05,1.05,0,0,1,.93,0l2.21,1.28c.24.14.21.38-.29.66l-1.06.62A1.23,1.23,0,0,1,165.15,128.71Z"/><path class="cls-4" d="M168.59,130.61l-2.21-1.27c-.24-.14-.21-.38.07-.54l1.5-.87a1,1,0,0,1,.93,0l2.21,1.28c.24.13.21.38-.29.66l-1.06.61A1.19,1.19,0,0,1,168.59,130.61Z"/><path class="cls-4" d="M178.23,136.4,176,135.13c-.24-.14-.21-.38.07-.54l1.5-.87a1.06,1.06,0,0,1,.93,0l2.21,1.28c.24.14.21.38-.29.67l-1.06.61A1.21,1.21,0,0,1,178.23,136.4Z"/><path class="cls-4" d="M181.62,138.36l-2.21-1.28c-.24-.14-.21-.38.07-.54l1.5-.86a1,1,0,0,1,.93,0l2.21,1.27c.24.14.21.38-.29.67l-1.06.61A1.22,1.22,0,0,1,181.62,138.36Z"/><path class="cls-4" d="M185,140.47l-2.21-1.28c-.24-.14-.21-.38.07-.54l1.5-.86a1,1,0,0,1,.93,0l2.21,1.27c.24.14.21.38-.29.67l-1.06.61A1.22,1.22,0,0,1,185,140.47Z"/><path class="cls-4" d="M151.12,136.17l-12.88-7.81c-.23-.14-.2-.38.08-.54l1.67-.91a1.05,1.05,0,0,1,.93,0l12.87,7.81c.24.14.2.38-.08.54l-1.66.91A1.05,1.05,0,0,1,151.12,136.17Z"/></g><g id="keys"><path class="cls-33" d="M135.11,110.68l-2.21-1.27c-.24-.14-.21-.38.07-.54l1.5-.87a1,1,0,0,1,.94,0l2.2,1.28c.24.14.21.38-.29.66l-1,.62A1.23,1.23,0,0,1,135.11,110.68Z"/><path class="cls-33" d="M131.12,113.37l-2.21-1.27c-.24-.14-.21-.38.07-.54l1.5-.87a1,1,0,0,1,.93,0l2.21,1.27c.24.14.21.38-.29.67l-1.06.61A1.18,1.18,0,0,1,131.12,113.37Z"/><path class="cls-33" d="M134.53,115.4l-2.2-1.27c-.24-.14-.21-.38.06-.54l1.51-.87a1.05,1.05,0,0,1,.93,0L137,114c.24.14.21.38-.29.66l-1.06.62A1.23,1.23,0,0,1,134.53,115.4Z"/><path class="cls-33" d="M137.83,117.37l-2.21-1.27c-.24-.14-.21-.38.07-.54l1.5-.87a1.06,1.06,0,0,1,.93,0l2.21,1.28c.24.14.21.38-.29.67l-1.06.61A1.21,1.21,0,0,1,137.83,117.37Z"/><path class="cls-33" d="M141.11,119.32l-2.2-1.28c-.24-.14-.21-.38.06-.54l1.5-.86a1,1,0,0,1,.94,0l2.21,1.27c.23.14.2.38-.29.67l-1.06.61A1.21,1.21,0,0,1,141.11,119.32Z"/><path class="cls-33" d="M144.36,121.26,142.15,120c-.24-.13-.21-.37.07-.53l1.5-.87a1,1,0,0,1,.93,0l2.21,1.27c.24.14.21.38-.29.67l-1.06.61A1.19,1.19,0,0,1,144.36,121.26Z"/><path class="cls-33" d="M147.58,123.25,145.37,122c-.24-.14-.21-.38.07-.54l1.5-.87a1.05,1.05,0,0,1,.93,0l2.21,1.27c.24.14.21.38-.29.67l-1.06.61A1.22,1.22,0,0,1,147.58,123.25Z"/><path class="cls-33" d="M150.9,125.23,148.69,124c-.24-.14-.21-.38.06-.54l1.51-.87a1,1,0,0,1,.93,0l2.21,1.28c.24.13.21.38-.29.66l-1.06.61A1.19,1.19,0,0,1,150.9,125.23Z"/><path class="cls-33" d="M154.11,127.22,151.9,126c-.24-.14-.21-.38.07-.54l1.5-.87a1.05,1.05,0,0,1,.93,0l2.21,1.28c.24.14.21.38-.29.66l-1.06.62A1.21,1.21,0,0,1,154.11,127.22Z"/><path class="cls-33" d="M157.49,129.23,155.28,128c-.24-.13-.21-.38.07-.54l1.5-.86a1,1,0,0,1,.93,0l2.21,1.27c.24.14.21.38-.29.67l-1.06.61A1.19,1.19,0,0,1,157.49,129.23Z"/><path class="cls-33" d="M160.82,131.19l-2.2-1.28c-.24-.13-.21-.37.06-.53l1.51-.87a1,1,0,0,1,.93,0l2.21,1.27c.24.14.21.38-.29.67L162,131A1.21,1.21,0,0,1,160.82,131.19Z"/><path class="cls-33" d="M164.24,133.25,162,132c-.24-.14-.21-.38.06-.54l1.5-.87a1,1,0,0,1,.94,0l2.21,1.28c.23.14.2.38-.29.66l-1.06.62A1.23,1.23,0,0,1,164.24,133.25Z"/><path class="cls-33" d="M167.52,135.2l-2.21-1.27c-.24-.14-.21-.38.07-.54l1.5-.87a1.05,1.05,0,0,1,.93,0l2.21,1.28c.24.14.21.38-.29.67l-1.06.61A1.21,1.21,0,0,1,167.52,135.2Z"/><path class="cls-33" d="M170.81,137.18l-2.21-1.28c-.24-.13-.21-.38.07-.54l1.5-.86a1,1,0,0,1,.93,0l2.21,1.27c.24.14.21.38-.29.67L172,137A1.19,1.19,0,0,1,170.81,137.18Z"/><path class="cls-33" d="M174.06,139.16l-2.21-1.28c-.24-.14-.21-.38.07-.54l1.5-.86a1,1,0,0,1,.94,0l2.2,1.27c.24.14.21.38-.29.67l-1.05.61A1.24,1.24,0,0,1,174.06,139.16Z"/><path class="cls-33" d="M177.34,141.14l-2.21-1.27c-.24-.14-.21-.38.06-.54l1.51-.87a1,1,0,0,1,.93,0l2.21,1.28c.24.14.21.38-.29.66l-1.06.62A1.21,1.21,0,0,1,177.34,141.14Z"/><path class="cls-33" d="M180.74,143.11l-2.21-1.28c-.24-.14-.21-.38.07-.54l1.5-.86a1,1,0,0,1,.93,0l2.21,1.27c.24.14.21.38-.29.67l-1.06.61A1.19,1.19,0,0,1,180.74,143.11Z"/><path class="cls-33" d="M128.31,115l-2.21-1.28c-.24-.13-.21-.37.06-.53l1.51-.87a1,1,0,0,1,.93,0l2.21,1.27c.24.14.21.38-.29.67l-1.06.61A1.19,1.19,0,0,1,128.31,115Z"/><path class="cls-33" d="M131.72,117.07l-2.21-1.28c-.24-.14-.21-.38.07-.54l1.5-.86a1,1,0,0,1,.94,0l2.2,1.27c.24.14.21.38-.29.67l-1.05.61A1.21,1.21,0,0,1,131.72,117.07Z"/><path class="cls-33" d="M135,119l-2.21-1.28c-.24-.14-.21-.38.07-.54l1.5-.86a1,1,0,0,1,.93,0l2.21,1.27c.24.14.21.38-.29.67l-1.06.61A1.19,1.19,0,0,1,135,119Z"/><path class="cls-33" d="M138.3,121l-2.21-1.27c-.24-.14-.21-.38.07-.54l1.5-.87a1,1,0,0,1,.93,0l2.21,1.28c.24.13.21.38-.29.66l-1.06.61A1.19,1.19,0,0,1,138.3,121Z"/><path class="cls-33" d="M141.54,122.92l-2.2-1.27c-.24-.14-.21-.38.06-.54l1.51-.87a1.05,1.05,0,0,1,.93,0l2.21,1.28c.23.14.2.38-.29.67l-1.06.61A1.23,1.23,0,0,1,141.54,122.92Z"/><path class="cls-33" d="M144.76,124.91l-2.2-1.27c-.24-.14-.21-.38.06-.54l1.51-.87a1,1,0,0,1,.93,0l2.21,1.28c.24.13.21.37-.29.66l-1.06.61A1.21,1.21,0,0,1,144.76,124.91Z"/><path class="cls-33" d="M148.08,126.9l-2.21-1.28c-.24-.14-.21-.38.07-.54l1.5-.86a1,1,0,0,1,.94,0l2.2,1.27c.24.14.21.38-.28.67l-1.06.61A1.24,1.24,0,0,1,148.08,126.9Z"/><path class="cls-33" d="M151.29,128.89l-2.2-1.28c-.24-.14-.21-.38.06-.54l1.5-.86a1,1,0,0,1,.94,0l2.21,1.27c.23.14.2.38-.29.67l-1.06.61A1.21,1.21,0,0,1,151.29,128.89Z"/><path class="cls-33" d="M154.67,130.89l-2.2-1.27c-.24-.14-.21-.38.06-.54l1.5-.87a1,1,0,0,1,.94,0l2.21,1.28c.23.14.2.38-.29.66l-1.06.62A1.23,1.23,0,0,1,154.67,130.89Z"/><path class="cls-33" d="M158,132.85l-2.21-1.27c-.24-.14-.21-.38.07-.54l1.5-.87a1.08,1.08,0,0,1,.94,0l2.2,1.28c.24.14.21.38-.29.67l-1.05.61A1.23,1.23,0,0,1,158,132.85Z"/><path class="cls-33" d="M161.43,134.92l-2.21-1.28c-.24-.14-.21-.38.07-.54l1.5-.86a1,1,0,0,1,.93,0l2.21,1.27c.24.14.21.38-.29.67l-1.06.61A1.22,1.22,0,0,1,161.43,134.92Z"/><path class="cls-33" d="M164.7,136.87l-2.2-1.28c-.24-.13-.21-.38.06-.54l1.5-.86a1,1,0,0,1,.94,0l2.21,1.27c.23.14.2.38-.29.67l-1.06.61A1.21,1.21,0,0,1,164.7,136.87Z"/><path class="cls-33" d="M168,138.84l-2.21-1.27c-.24-.14-.21-.38.07-.54l1.5-.87a1,1,0,0,1,.93,0l2.21,1.28c.24.14.21.38-.29.66l-1.06.62A1.21,1.21,0,0,1,168,138.84Z"/><path class="cls-33" d="M171.25,140.82,169,139.55c-.24-.14-.21-.38.07-.54l1.5-.87a1,1,0,0,1,.93,0l2.21,1.28c.24.13.21.38-.29.66l-1.06.61A1.19,1.19,0,0,1,171.25,140.82Z"/><path class="cls-33" d="M174.52,142.81l-2.21-1.28c-.23-.14-.2-.38.07-.54l1.5-.86a1,1,0,0,1,.94,0l2.2,1.27c.24.14.21.38-.28.67l-1.06.61A1.24,1.24,0,0,1,174.52,142.81Z"/><path class="cls-33" d="M177.92,144.77l-2.2-1.27c-.24-.14-.21-.38.06-.54l1.5-.87a1,1,0,0,1,.94,0l2.21,1.28c.23.13.2.38-.29.66l-1.06.61A1.21,1.21,0,0,1,177.92,144.77Z"/><path class="cls-33" d="M125.78,116.94l-2.21-1.28c-.24-.13-.21-.38.07-.54l1.5-.86a1,1,0,0,1,.94,0l2.2,1.27c.24.14.21.38-.29.67l-1,.61A1.21,1.21,0,0,1,125.78,116.94Z"/><path class="cls-33" d="M129.2,119,127,117.69c-.24-.14-.21-.38.07-.54l1.5-.86a1,1,0,0,1,.93,0l2.21,1.27c.24.14.21.38-.29.67l-1.06.61A1.22,1.22,0,0,1,129.2,119Z"/><path class="cls-33" d="M132.49,120.94l-2.21-1.28c-.23-.14-.2-.38.07-.54l1.5-.86a1,1,0,0,1,.94,0l2.2,1.27c.24.14.21.38-.28.67l-1.06.61A1.24,1.24,0,0,1,132.49,120.94Z"/><path class="cls-33" d="M135.77,122.88l-2.2-1.27c-.24-.14-.21-.38.06-.54l1.51-.87a1,1,0,0,1,.93,0l2.21,1.28c.24.13.21.37-.29.66l-1.06.61A1.21,1.21,0,0,1,135.77,122.88Z"/><path class="cls-33" d="M139,124.82l-2.21-1.27c-.24-.14-.21-.38.07-.54l1.5-.87a1.06,1.06,0,0,1,.93,0l2.21,1.28c.24.14.21.38-.29.66l-1.06.62A1.21,1.21,0,0,1,139,124.82Z"/><path class="cls-33" d="M142.24,126.81,140,125.53c-.24-.13-.21-.38.07-.53l1.5-.87a1,1,0,0,1,.93,0l2.21,1.27c.24.14.21.38-.29.67l-1.06.61A1.19,1.19,0,0,1,142.24,126.81Z"/><path class="cls-33" d="M145.56,128.79l-2.21-1.27c-.24-.14-.21-.38.07-.54l1.5-.87a1,1,0,0,1,.93,0l2.21,1.27c.24.14.21.38-.29.67l-1.06.61A1.18,1.18,0,0,1,145.56,128.79Z"/><path class="cls-33" d="M148.77,130.79l-2.21-1.28c-.24-.14-.21-.38.07-.54l1.5-.86a1,1,0,0,1,.93,0l2.21,1.27c.24.14.21.38-.29.67l-1.06.61A1.22,1.22,0,0,1,148.77,130.79Z"/><path class="cls-33" d="M152.15,132.79l-2.21-1.27c-.24-.14-.21-.38.07-.54l1.5-.87a1,1,0,0,1,.93,0l2.21,1.28c.24.13.21.38-.29.66l-1.06.61A1.19,1.19,0,0,1,152.15,132.79Z"/><path class="cls-33" d="M155.49,134.75l-2.21-1.27c-.24-.14-.21-.38.07-.54l1.5-.87a1.05,1.05,0,0,1,.93,0l2.21,1.28c.24.14.21.38-.29.66l-1.06.62A1.21,1.21,0,0,1,155.49,134.75Z"/><path class="cls-33" d="M158.9,136.81l-2.2-1.27c-.24-.14-.21-.38.06-.54l1.51-.87a1,1,0,0,1,.93,0l2.21,1.27c.24.14.21.38-.29.67l-1.06.61A1.2,1.2,0,0,1,158.9,136.81Z"/><path class="cls-33" d="M162.18,138.77,160,137.49c-.24-.14-.21-.38.07-.54l1.5-.86a1,1,0,0,1,.93,0l2.21,1.27c.24.14.21.38-.29.67l-1.06.61A1.22,1.22,0,0,1,162.18,138.77Z"/><path class="cls-33" d="M165.47,140.74l-2.21-1.27c-.24-.14-.21-.38.07-.54l1.5-.87a1,1,0,0,1,.94,0l2.2,1.28c.24.13.21.38-.28.66l-1.06.61A1.21,1.21,0,0,1,165.47,140.74Z"/><path class="cls-33" d="M168.72,142.72l-2.21-1.28c-.23-.13-.2-.37.07-.53l1.5-.87a1,1,0,0,1,.94,0l2.2,1.27c.24.14.21.38-.28.67l-1.06.61A1.21,1.21,0,0,1,168.72,142.72Z"/><path class="cls-33" d="M172,144.71l-2.21-1.28c-.24-.14-.21-.38.07-.54l1.5-.87a1.05,1.05,0,0,1,.93,0l2.21,1.27c.24.14.21.38-.29.67l-1.06.61A1.22,1.22,0,0,1,172,144.71Z"/><path class="cls-33" d="M175.4,146.67l-2.21-1.27c-.24-.14-.21-.38.07-.54l1.5-.87a1,1,0,0,1,.93,0l2.21,1.28c.24.13.21.37-.29.66l-1.06.61A1.19,1.19,0,0,1,175.4,146.67Z"/><path class="cls-33" d="M123.26,118.89l-2.21-1.28c-.24-.13-.21-.37.07-.53l1.5-.87a1,1,0,0,1,.93,0l2.21,1.27c.24.14.21.38-.29.67l-1.06.61A1.19,1.19,0,0,1,123.26,118.89Z"/><path class="cls-33" d="M126.67,120.92l-2.21-1.28c-.24-.13-.21-.38.07-.54l1.5-.86a1,1,0,0,1,.94,0l2.2,1.27c.24.14.21.38-.28.67l-1.06.61A1.21,1.21,0,0,1,126.67,120.92Z"/><path class="cls-33" d="M130,122.89l-2.21-1.28c-.24-.13-.21-.38.07-.54l1.5-.86a1,1,0,0,1,.93,0l2.21,1.27c.24.14.21.38-.29.67l-1.06.61A1.19,1.19,0,0,1,130,122.89Z"/><path class="cls-33" d="M133.25,124.83,131,123.56c-.24-.14-.21-.38.07-.54l1.5-.87a1,1,0,0,1,.93,0l2.21,1.28c.24.14.21.38-.29.66l-1.06.62A1.21,1.21,0,0,1,133.25,124.83Z"/><path class="cls-33" d="M136.49,126.77l-2.2-1.27c-.24-.14-.21-.38.06-.54l1.51-.87a1,1,0,0,1,.93,0l2.21,1.27c.24.14.21.38-.29.67l-1.06.61A1.2,1.2,0,0,1,136.49,126.77Z"/><path class="cls-33" d="M156,138.52l-2.21-1.27c-.24-.14-.21-.38.06-.54l1.51-.87a1.05,1.05,0,0,1,.93,0l2.21,1.28c.24.14.21.38-.29.67l-1.06.61A1.21,1.21,0,0,1,156,138.52Z"/><path class="cls-33" d="M159.27,140.48l-2.21-1.28c-.24-.14-.21-.38.07-.54l1.5-.87a1.05,1.05,0,0,1,.93,0l2.21,1.27c.24.14.21.38-.29.67l-1.06.61A1.22,1.22,0,0,1,159.27,140.48Z"/><path class="cls-33" d="M162.56,142.45l-2.2-1.28c-.24-.13-.21-.37.06-.53l1.5-.87a1,1,0,0,1,.94,0l2.21,1.27c.23.14.2.38-.29.67l-1.06.61A1.21,1.21,0,0,1,162.56,142.45Z"/><path class="cls-33" d="M165.81,144.43l-2.2-1.28c-.24-.13-.21-.38.06-.54l1.51-.86a1,1,0,0,1,.93,0l2.21,1.27c.24.14.21.38-.29.67l-1.06.61A1.21,1.21,0,0,1,165.81,144.43Z"/><path class="cls-33" d="M169.09,146.41l-2.21-1.27c-.24-.14-.21-.38.07-.54l1.5-.87a1.06,1.06,0,0,1,.93,0l2.21,1.28c.24.14.21.38-.29.67l-1.06.61A1.21,1.21,0,0,1,169.09,146.41Z"/><path class="cls-33" d="M172.49,148.38l-2.21-1.28c-.24-.13-.21-.38.07-.53l1.5-.87a1,1,0,0,1,.93,0l2.21,1.27c.24.14.21.38-.29.67l-1.06.61A1.19,1.19,0,0,1,172.49,148.38Z"/><path class="cls-33" d="M141.62,114.62l-2.21-1.27c-.24-.14-.21-.38.07-.54l1.5-.87a1,1,0,0,1,.93,0l2.21,1.28c.24.13.21.38-.29.66l-1.06.61A1.19,1.19,0,0,1,141.62,114.62Z"/><path class="cls-33" d="M145.07,116.64l-2.21-1.27c-.24-.14-.21-.38.07-.54l1.5-.87a1,1,0,0,1,.93,0l2.21,1.28c.24.13.21.37-.29.66l-1.06.61A1.19,1.19,0,0,1,145.07,116.64Z"/><path class="cls-33" d="M148.39,118.53l-2.21-1.28c-.24-.14-.21-.38.07-.54l1.5-.86a1,1,0,0,1,.93,0l2.21,1.27c.24.14.21.38-.29.67l-1.06.61A1.22,1.22,0,0,1,148.39,118.53Z"/><path class="cls-33" d="M151.86,120.49l-2.2-1.28c-.24-.14-.21-.38.06-.54l1.5-.86a1,1,0,0,1,.94,0l2.21,1.27c.23.14.2.38-.29.67l-1.06.61A1.24,1.24,0,0,1,151.86,120.49Z"/><path class="cls-33" d="M158.32,124.47l-2.21-1.27c-.24-.14-.21-.38.07-.54l1.5-.87a1,1,0,0,1,.93,0l2.21,1.28c.24.13.21.37-.29.66l-1.06.61A1.19,1.19,0,0,1,158.32,124.47Z"/><path class="cls-33" d="M161.77,126.47l-2.2-1.27c-.24-.14-.21-.38.06-.54l1.51-.87a1,1,0,0,1,.93,0l2.21,1.28c.24.13.21.38-.29.66l-1.06.61A1.21,1.21,0,0,1,161.77,126.47Z"/><path class="cls-33" d="M165.15,128.46l-2.2-1.28c-.24-.14-.21-.38.06-.54l1.51-.86a1,1,0,0,1,.93,0l2.21,1.27c.24.14.21.38-.29.67l-1.06.61A1.21,1.21,0,0,1,165.15,128.46Z"/><path class="cls-33" d="M168.59,130.36l-2.21-1.28c-.24-.14-.21-.38.07-.54l1.5-.86a1,1,0,0,1,.93,0l2.21,1.27c.24.14.21.38-.29.67l-1.06.61A1.22,1.22,0,0,1,168.59,130.36Z"/><path class="cls-33" d="M178.23,136.15,176,134.87c-.24-.13-.21-.38.07-.53l1.5-.87a1,1,0,0,1,.93,0l2.21,1.27c.24.14.21.38-.29.67l-1.06.61A1.19,1.19,0,0,1,178.23,136.15Z"/><path class="cls-33" d="M181.62,138.1l-2.21-1.27c-.24-.14-.21-.38.07-.54l1.5-.87a1,1,0,0,1,.93,0l2.21,1.28c.24.13.21.37-.29.66l-1.06.61A1.19,1.19,0,0,1,181.62,138.1Z"/><path class="cls-33" d="M185,140.21l-2.21-1.27c-.24-.14-.21-.38.07-.54l1.5-.87a1,1,0,0,1,.93,0l2.21,1.28c.24.13.21.38-.29.66l-1.06.61A1.19,1.19,0,0,1,185,140.21Z"/><path class="cls-33" d="M151.12,135.91l-12.88-7.81c-.23-.14-.2-.38.08-.53l1.66-.92a1,1,0,0,1,.94,0l12.87,7.8c.24.15.2.39-.08.54l-1.66.91A1,1,0,0,1,151.12,135.91Z"/></g></g></g><g id="monitor"><g id="monitor_stand"><path class="cls-4" d="M169.88,95.71a1,1,0,0,1-.48-.85V93.25l27.06,16.55,13.06-8.15v1.83a1,1,0,0,1-.48.85L197,111.65a1,1,0,0,1-1,0Z"/><path class="cls-32" d="M169.88,92.39l12.06-7.23a1,1,0,0,1,1,0L209,100.79a1,1,0,0,1,0,1.72L197,109.74a1,1,0,0,1-1,0L169.88,94.11A1,1,0,0,1,169.88,92.39Z"/></g><g id="monitor_main"><g id="main_shadow_2"><polygon class="cls-34" points="201.06 107.29 172.87 90.6 182.84 84.62 210.66 101.53 201.06 107.29"/></g><path class="cls-49" d="M146.78.14l-3.62,2.11,97.3,58-.21,66.19,3.12-1.94a1,1,0,0,0,.47-.85V58.82a1,1,0,0,0-.48-.86L147.8.14A1,1,0,0,0,146.78.14Z"/><path class="cls-32" d="M143.24,68.79l96,57.61a1,1,0,0,0,1.52-.86V60.66a1,1,0,0,0-.49-.85l-96-57.61a1,1,0,0,0-1.52.85V67.93A1,1,0,0,0,143.24,68.79Z"/></g><g id="monitor_screen"><g id="screen_color"><polygon class="cls-50" points="237.77 121.45 237.77 62.35 145.75 7.14 145.75 66.24 237.77 121.45"/></g><g id="screen_code"><ellipse class="cls-51" cx="150.02" cy="14.29" rx="0.83" ry="1.43" transform="matrix(0.86, -0.51, 0.51, 0.86, 13.35, 77.79)"/><ellipse class="cls-51" cx="150.02" cy="18.01" rx="0.83" ry="1.43" transform="matrix(0.86, -0.51, 0.51, 0.86, 11.47, 78.3)"/><ellipse class="cls-51" cx="150.02" cy="21.46" rx="0.83" ry="1.43" transform="matrix(0.86, -0.51, 0.51, 0.86, 9.73, 78.77)"/><ellipse class="cls-51" cx="150.02" cy="25.04" rx="0.83" ry="1.43" transform="translate(7.92 79.26) rotate(-30.36)"/><ellipse class="cls-51" cx="150.02" cy="32.21" rx="0.83" ry="1.43" transform="translate(4.29 80.24) rotate(-30.36)"/><ellipse class="cls-51" cx="150.02" cy="35.79" rx="0.83" ry="1.43" transform="matrix(0.86, -0.51, 0.51, 0.86, 2.48, 80.73)"/><ellipse class="cls-51" cx="150.02" cy="39.38" rx="0.83" ry="1.43" transform="matrix(0.86, -0.51, 0.51, 0.86, 0.67, 81.23)"/><ellipse class="cls-51" cx="150.02" cy="42.96" rx="0.83" ry="1.43" transform="matrix(0.86, -0.51, 0.51, 0.86, -1.14, 81.72)"/><ellipse class="cls-51" cx="150.02" cy="46.55" rx="0.83" ry="1.43" transform="matrix(0.86, -0.51, 0.51, 0.86, -2.95, 82.21)"/><ellipse class="cls-51" cx="150.02" cy="50.13" rx="0.83" ry="1.43" transform="matrix(0.86, -0.51, 0.51, 0.86, -4.77, 82.7)"/><ellipse class="cls-51" cx="150.02" cy="53.72" rx="0.83" ry="1.43" transform="translate(-6.58 83.19) rotate(-30.36)"/><ellipse class="cls-51" cx="150.02" cy="60.88" rx="0.83" ry="1.43" transform="matrix(0.86, -0.51, 0.51, 0.86, -10.2, 84.17)"/><ellipse class="cls-51" cx="150.02" cy="64.47" rx="0.83" ry="1.43" transform="matrix(0.86, -0.51, 0.51, 0.86, -12.01, 84.67)"/><path class="cls-52" d="M163.62,71.48l-3.41-2c-.47-.27-.85,0-.85.64h0a2,2,0,0,0,.85,1.62l3.41,2c.46.27.84,0,.84-.64h0A2.05,2.05,0,0,0,163.62,71.48Z"/><path class="cls-52" d="M179.28,55.4,152.51,39.94c-.47-.27-.85,0-.85.65h0a2,2,0,0,0,.85,1.62l26.77,15.45c.47.27.85,0,.85-.64h0A2,2,0,0,0,179.28,55.4Z"/><path class="cls-52" d="M187.24,63.51,160.47,48.06c-.47-.27-.85,0-.85.64h0a2,2,0,0,0,.85,1.62l26.77,15.45c.46.27.84,0,.84-.64h0A2.05,2.05,0,0,0,187.24,63.51Z"/><path class="cls-52" d="M179.28,37.85,152.51,22.39c-.47-.27-.85,0-.85.64h0a2,2,0,0,0,.85,1.62l26.77,15.46c.47.27.85,0,.85-.64h0A2,2,0,0,0,179.28,37.85Z"/><path class="cls-52" d="M163.64,21.25l-11.13-6.42c-.47-.27-.85,0-.85.64h0a2,2,0,0,0,.85,1.62l11.13,6.43c.47.27.85,0,.85-.65h0A2,2,0,0,0,163.64,21.25Z"/><path class="cls-52" d="M163.51,39.34l-11.14-6.43c-.46-.27-.84,0-.84.64h0a2,2,0,0,0,.84,1.62l11.14,6.43c.47.27.84,0,.84-.64h0A2,2,0,0,0,163.51,39.34Z"/><path class="cls-53" d="M184.75,79.81l-14-8.08c-.46-.27-.84,0-.84.64h0a2,2,0,0,0,.84,1.62l14,8.08c.47.27.85,0,.85-.64h0A2,2,0,0,0,184.75,79.81Z"/><path class="cls-53" d="M173,48.46,152.37,36.55c-.46-.27-.84,0-.84.64h0a2,2,0,0,0,.84,1.62L173,50.72c.47.27.85,0,.85-.64h0A2,2,0,0,0,173,48.46Z"/><path class="cls-53" d="M163.64,25l-11.13-6.43c-.47-.27-.85,0-.85.64h0a2,2,0,0,0,.85,1.62l11.13,6.43c.47.27.85,0,.85-.64h0A2,2,0,0,0,163.64,25Z"/><path class="cls-53" d="M189.37,68.25l-11.13-6.42c-.47-.27-.85,0-.85.64h0a2,2,0,0,0,.85,1.62l11.13,6.42c.47.27.85,0,.85-.64h0A2,2,0,0,0,189.37,68.25Z"/><path class="cls-53" d="M163.51,60.24l-11.14-6.42c-.46-.27-.84,0-.84.64h0a2.05,2.05,0,0,0,.84,1.62l11.14,6.43c.47.27.84,0,.84-.65h0A2,2,0,0,0,163.51,60.24Z"/><path class="cls-54" d="M171.63,26.16l-5.81-3.35c-.46-.27-.84,0-.84.64h0a2,2,0,0,0,.84,1.62l5.81,3.35c.47.27.85,0,.85-.64h0A2,2,0,0,0,171.63,26.16Z"/><path class="cls-54" d="M187.53,42.68,182,39.48c-.47-.27-.85,0-.85.64h0a2,2,0,0,0,.85,1.62l5.54,3.2c.47.27.85,0,.85-.64h0A2,2,0,0,0,187.53,42.68Z"/><path class="cls-54" d="M158.05,46.64l-5.54-3.2c-.47-.27-.85,0-.85.64h0a2,2,0,0,0,.85,1.62l5.54,3.2c.47.27.85,0,.85-.64h0A2,2,0,0,0,158.05,46.64Z"/><path class="cls-54" d="M208.53,58.23,203,55c-.47-.27-.85,0-.85.64h0a2,2,0,0,0,.85,1.62l5.54,3.2c.47.27.85,0,.85-.64h0A2,2,0,0,0,208.53,58.23Z"/><path class="cls-54" d="M158.05,68.25l-5.54-3.19c-.47-.27-.85,0-.85.64h0a2,2,0,0,0,.85,1.62l5.54,3.19c.47.27.85,0,.85-.64h0A2,2,0,0,0,158.05,68.25Z"/><path class="cls-55" d="M168.69,59.77l-16-9.24c-.48-.28-.87,0-.87.65v.06a2.05,2.05,0,0,0,.87,1.65l16,9.25c.48.27.87,0,.87-.66v0A2.09,2.09,0,0,0,168.69,59.77Z"/><path class="cls-55" d="M168.69,70.23l-16-9.24c-.48-.28-.87,0-.87.65v.06a2.05,2.05,0,0,0,.87,1.65l16,9.25c.48.27.87,0,.87-.66v0A2.09,2.09,0,0,0,168.69,70.23Z"/><path class="cls-55" d="M189.06,40.08,165.71,26.6c-.48-.28-.86,0-.86.65v.05a2.08,2.08,0,0,0,.86,1.66l23.35,13.48c.48.28.87,0,.87-.65v-.06A2.05,2.05,0,0,0,189.06,40.08Z"/><path class="cls-55" d="M176,60.49,152.68,47c-.48-.28-.87,0-.87.65v.06a2.05,2.05,0,0,0,.87,1.65L176,62.85c.48.28.87,0,.87-.65v-.06A2.08,2.08,0,0,0,176,60.49Z"/><path class="cls-55" d="M200.52,53.43l-48-27.71c-.48-.28-.87,0-.87.66v.05a2.05,2.05,0,0,0,.87,1.65l48,27.71c.48.28.87,0,.87-.65v-.06A2.05,2.05,0,0,0,200.52,53.43Z"/></g></g></g></g></svg>